<?xml version="1.0" standalone="no"?>
<!DOCTYPE svg PUBLIC "-//W3C//DTD SVG 20010904//EN"
 "http://www.w3.org/TR/2001/REC-SVG-20010904/DTD/svg10.dtd">
<svg version="1.0" xmlns="http://www.w3.org/2000/svg"
 width="952.000000pt" height="952.000000pt" viewBox="0 0 952.000000 952.000000"
 preserveAspectRatio="xMidYMid meet">
<metadata>
Created by potrace 1.14, written by Peter Selinger 2001-2017
</metadata>
<g transform="translate(0.000000,952.000000) scale(0.100000,-0.100000)"
fill="#000000" stroke="none">
<path d="M1817 8218 c-6 -4 -15 -4 -19 -2 -4 3 -8 0 -8 -6 0 -6 -4 -9 -8 -6
-8 5 -55 -40 -58 -54 0 -3 -5 -16 -11 -30 -6 -14 -14 -55 -17 -90 -5 -58 -12
-105 -16 -105 -1 0 -3 -36 -5 -80 -2 -44 -6 -94 -10 -110 -3 -17 -8 -52 -11
-80 -7 -72 -9 -84 -17 -91 -3 -4 -2 -14 3 -24 5 -10 7 -20 3 -24 -3 -3 -8 -23
-10 -43 -8 -80 -11 -108 -12 -108 -1 0 -4 -25 -6 -55 -7 -95 -14 -150 -19
-158 -3 -5 -1 -14 4 -22 5 -8 5 -19 0 -25 -8 -9 -13 -57 -25 -237 -6 -84 -11
-113 -20 -128 -3 -6 0 -10 7 -10 8 0 9 -3 3 -8 -6 -4 -12 -25 -14 -47 -1 -22
-5 -53 -7 -70 -2 -16 -7 -57 -9 -90 -3 -33 -8 -78 -10 -100 -7 -54 -15 -140
-20 -195 -2 -25 -5 -45 -6 -45 -1 0 -3 -22 -5 -50 -4 -62 -12 -142 -18 -175
-2 -14 -7 -72 -10 -130 -3 -58 -8 -116 -11 -130 -7 -39 -15 -100 -20 -150 -6
-58 -13 -136 -21 -205 -3 -31 -8 -75 -10 -98 -2 -23 -6 -60 -8 -82 -3 -22 -8
-65 -10 -95 -11 -125 -22 -215 -26 -215 -1 0 -3 -29 -5 -65 -2 -36 -6 -83 -8
-105 -3 -22 -8 -76 -12 -120 -10 -105 -10 -103 -18 -111 -3 -4 -2 -14 3 -24 5
-10 6 -20 3 -24 -16 -16 -18 -169 -3 -174 6 -2 10 -12 10 -23 0 -10 4 -19 8
-19 4 0 23 -26 42 -57 30 -51 86 -139 107 -169 27 -37 39 -71 29 -80 -19 -16
-66 -45 -66 -39 0 2 -9 -3 -19 -12 -19 -16 -115 -70 -226 -126 -33 -17 -67
-36 -75 -43 -23 -19 -111 -64 -126 -64 -7 0 -14 -3 -16 -7 -5 -12 -77 -57
-135 -84 -29 -13 -53 -27 -53 -31 0 -5 -6 -8 -14 -8 -7 0 -19 -7 -26 -15 -7
-8 -16 -13 -20 -10 -7 4 -22 -6 -70 -47 -8 -7 -18 -12 -22 -11 -5 2 -8 -2 -8
-9 0 -6 -7 -19 -15 -28 -24 -27 -20 -113 8 -165 12 -22 14 -27 16 -52 0 -9 4
-13 7 -10 8 8 24 -19 97 -163 108 -210 122 -235 142 -254 11 -10 19 -22 18
-26 -3 -11 69 -41 104 -42 16 -1 65 16 107 36 43 20 82 34 87 31 5 -4 9 -2 9
2 0 5 10 9 23 9 12 1 38 4 57 8 19 4 47 10 61 13 15 3 44 21 64 40 20 19 43
32 51 29 8 -3 14 -1 14 5 0 6 6 7 17 0 10 -5 26 -5 40 0 14 5 23 5 23 -1 0 -5
12 -5 30 0 19 5 30 5 30 -1 0 -6 6 -7 13 -2 6 4 32 9 57 10 52 4 105 26 120
51 8 13 12 14 17 4 3 -7 16 -24 29 -38 14 -13 22 -24 19 -24 -3 0 6 -12 20
-27 14 -15 25 -31 25 -35 0 -3 7 -13 15 -22 13 -13 12 -17 -13 -35 -15 -12
-32 -25 -39 -31 -7 -5 -16 -10 -22 -10 -5 0 -11 -3 -13 -7 -1 -5 -19 -17 -39
-28 -20 -11 -49 -30 -65 -43 -39 -30 -193 -132 -199 -132 -6 0 -17 -8 -54 -40
-10 -8 -24 -16 -32 -18 -8 -2 -19 -8 -24 -15 -12 -14 -41 -33 -70 -46 -11 -5
-29 -17 -40 -28 -11 -10 -32 -24 -47 -32 -16 -8 -28 -18 -28 -21 0 -4 -13 -13
-30 -20 -16 -7 -30 -17 -30 -22 0 -5 -4 -7 -8 -4 -5 3 -30 -17 -56 -44 -37
-38 -44 -50 -29 -50 17 -1 17 -1 1 -11 -13 -7 -17 -20 -14 -48 3 -42 36 -131
49 -131 4 0 7 -9 7 -19 0 -10 6 -21 13 -24 6 -3 21 -22 32 -43 11 -22 22 -41
25 -44 13 -11 90 -133 90 -141 0 -5 5 -9 10 -9 6 0 10 -4 10 -10 0 -12 83
-139 106 -162 10 -10 23 -18 31 -18 7 0 13 -4 13 -10 0 -5 7 -7 15 -4 8 4 15
2 15 -4 0 -21 122 27 176 69 9 7 58 20 132 34 9 2 18 4 20 5 1 2 5 3 10 4 15
4 70 36 74 44 1 4 21 21 42 37 22 17 36 24 32 17 -7 -11 -4 -12 11 -3 11 5 28
10 39 10 70 -2 209 13 216 24 4 7 11 12 15 12 12 1 49 24 39 25 -6 0 0 9 11
19 12 11 23 24 24 30 2 5 13 11 24 13 11 1 23 8 27 13 5 6 8 3 8 -7 0 -9 -45
-51 -102 -97 -105 -81 -292 -231 -317 -252 -19 -17 -123 -100 -159 -128 -79
-60 -106 -136 -75 -212 8 -22 19 -39 24 -39 5 0 9 -5 9 -11 0 -6 16 -27 35
-47 19 -20 35 -40 35 -43 0 -4 16 -24 35 -45 19 -22 35 -42 35 -45 0 -4 14
-22 30 -40 17 -19 45 -54 63 -79 79 -112 142 -170 187 -170 11 0 20 -6 20 -12
0 -9 4 -8 10 2 5 8 10 11 10 6 0 -5 8 -2 17 5 11 10 14 10 9 2 -4 -7 -2 -13 3
-13 6 0 11 7 11 15 0 8 6 12 13 9 7 -2 24 7 37 21 13 14 29 25 37 25 7 0 13 4
13 10 0 12 29 27 66 35 16 3 34 7 39 9 6 2 22 6 38 11 15 4 27 11 27 17 0 5 5
6 10 3 10 -6 90 69 90 85 0 4 15 7 33 8 17 1 43 4 57 8 50 12 134 23 142 18 4
-3 8 0 8 6 0 6 4 9 8 6 13 -8 72 25 72 41 0 8 4 12 9 9 4 -3 16 12 26 34 17
39 31 48 78 54 58 8 97 19 108 32 6 8 16 14 21 14 16 0 68 61 68 79 0 9 4 21
9 27 6 5 11 35 12 67 3 66 8 71 84 81 49 7 135 41 135 54 0 14 41 33 53 25 31
-20 127 -5 127 20 0 6 3 8 6 5 9 -10 43 29 61 72 19 44 24 46 98 56 28 3 57
10 65 14 8 4 17 8 20 7 3 0 18 8 33 18 20 13 50 19 100 20 80 3 134 12 151 26
44 37 66 59 57 59 -6 0 0 11 13 25 13 14 34 25 49 25 14 0 29 5 32 10 4 6 10
8 14 6 4 -3 17 2 27 12 43 38 123 64 192 63 13 -1 20 4 17 9 -3 5 1 7 9 4 18
-7 88 15 82 25 -3 4 5 7 17 6 22 -2 25 0 69 38 27 23 49 65 53 100 4 30 5 32
13 20 4 -7 17 -14 27 -16 11 -1 25 -6 31 -9 6 -4 57 -9 115 -13 57 -3 122 -8
144 -11 22 -4 57 -7 77 -8 21 0 38 -3 38 -6 0 -3 46 -6 103 -7 148 -2 285 -14
327 -30 8 -3 29 -7 45 -9 17 -2 46 -7 65 -11 34 -6 46 -8 120 -16 19 -2 42 -6
50 -10 8 -3 22 -5 30 -5 23 0 112 -11 140 -17 59 -12 157 -7 191 10 41 21 79
56 79 72 0 6 5 13 10 15 6 2 11 18 13 36 1 17 6 32 10 32 5 0 5 5 2 10 -4 6
-8 23 -11 38 -14 88 -69 136 -168 147 -27 3 -53 8 -56 10 -4 2 -23 5 -43 7
-21 1 -37 3 -37 4 0 5 35 70 40 74 4 3 20 32 36 65 27 56 39 71 56 74 47 9
231 97 283 136 17 13 47 27 67 33 35 9 36 9 57 -28 21 -38 82 -77 101 -65 6 3
10 1 10 -5 0 -6 5 -8 12 -4 7 4 24 9 38 9 42 3 113 17 140 28 14 5 30 11 35
12 30 6 55 19 55 28 0 6 3 7 7 4 3 -4 13 -1 21 5 7 7 24 13 35 15 51 7 157 38
157 46 0 4 4 6 8 3 5 -3 21 1 35 9 15 8 29 13 32 12 2 -1 13 6 24 15 11 9 21
14 24 12 7 -7 57 60 57 74 0 7 5 12 10 12 6 0 10 5 10 11 0 6 12 27 27 47 15
20 28 38 28 39 1 2 17 -2 36 -8 19 -6 45 -12 59 -14 58 -7 115 -17 122 -21 5
-3 8 -2 8 3 0 4 10 9 23 10 12 1 33 4 47 6 14 2 29 5 33 6 5 0 29 22 54 48 25
27 51 47 57 45 36 -11 137 0 213 24 63 20 94 35 118 60 25 25 38 32 56 28 30
-7 36 -7 79 1 19 3 41 7 48 7 6 1 12 4 12 7 0 3 17 7 38 9 48 3 64 6 79 15 15
9 44 -2 65 -26 10 -11 24 -17 33 -13 8 3 15 1 15 -5 0 -6 21 -9 51 -8 43 2 56
8 86 38 33 33 80 116 75 134 -1 4 3 7 9 7 5 0 8 4 4 9 -3 5 -1 12 4 15 16 10
33 138 22 161 -3 6 -7 21 -9 35 -2 14 -12 44 -22 67 -10 24 -16 42 -12 41 14
-4 52 23 47 32 -3 6 0 7 8 4 22 -8 50 71 48 136 -1 54 -7 115 -11 115 -1 0 -3
11 -5 25 -2 14 -6 43 -9 65 -3 22 -8 72 -11 110 -3 39 -8 77 -10 86 -8 24 -15
76 -21 139 -5 71 -11 120 -17 145 -12 55 -19 105 -23 158 -2 32 -5 66 -8 75
-6 18 -11 49 -21 127 -14 101 -16 121 -20 175 -2 30 -4 55 -5 55 -1 0 -3 15
-6 34 -2 19 -7 46 -10 60 -3 14 -8 53 -11 86 -2 33 -8 64 -13 68 -4 5 -4 23 0
41 4 19 4 40 -1 48 -5 9 -10 29 -11 47 -1 17 -5 31 -8 31 -3 0 -6 17 -7 38 -3
59 -12 167 -13 167 -4 0 -29 162 -32 205 0 8 -5 20 -10 27 -5 7 -5 14 2 18 6
3 7 11 4 17 -4 5 -8 31 -10 57 -3 25 -7 60 -10 76 -3 17 -7 49 -7 72 -1 24 -4
43 -7 43 -3 0 -5 12 -6 28 -1 41 -16 148 -29 212 -3 14 -7 48 -10 77 -4 56
-12 114 -21 153 -8 39 -14 82 -18 125 -7 73 -18 125 -28 125 -5 0 -6 5 -3 10
3 6 -1 13 -9 16 -9 3 -16 13 -16 21 0 8 -4 12 -9 8 -5 -3 -16 1 -24 9 -8 8
-17 12 -21 9 -3 -4 -6 -2 -6 3 0 5 -18 8 -40 8 -22 -1 -43 3 -47 8 -3 6 -7 54
-9 106 -1 66 -6 97 -16 103 -10 7 -10 9 2 9 10 1 7 7 -10 21 -14 12 -24 24
-22 28 2 3 -10 13 -26 21 l-30 15 1 265 c1 239 -1 269 -18 308 -10 23 -25 42
-32 42 -7 0 -13 4 -13 8 0 15 -71 34 -142 38 -39 3 -75 7 -79 10 -5 3 -9 0 -9
-6 0 -6 -5 -8 -12 -4 -12 7 -40 9 -278 19 -74 3 -153 8 -175 10 -45 5 -200 13
-385 20 -163 6 -296 13 -340 19 -37 4 -229 15 -415 22 -188 7 -309 13 -337 17
-14 2 -32 1 -39 -4 -7 -4 -23 -3 -37 2 -13 5 -76 10 -138 12 -63 1 -114 4
-114 7 0 3 -33 6 -73 7 -101 2 -165 8 -173 15 -3 4 -16 3 -29 -2 -13 -5 -25
-6 -29 -3 -3 3 -38 7 -78 8 -40 2 -131 6 -203 10 -231 11 -521 19 -632 16 -24
-1 -33 -6 -33 -18 0 -11 -3 -14 -8 -7 -5 7 -14 7 -29 -1 -13 -7 -20 -14 -18
-17 3 -3 -2 -9 -12 -12 -9 -4 -14 -4 -10 0 13 14 -56 61 -103 70 -8 2 -41 5
-73 8 -32 2 -61 7 -64 10 -3 3 -13 1 -23 -4 -10 -5 -20 -6 -24 -3 -4 4 -33 8
-64 9 -31 1 -100 5 -152 8 -52 3 -138 8 -190 11 -144 8 -210 14 -220 20 -6 3
-10 2 -10 -4 0 -6 -6 -8 -14 -5 -8 3 -60 7 -117 8 -57 2 -104 4 -104 5 0 1
-40 4 -90 6 -49 2 -112 6 -140 9 -27 3 -82 7 -121 9 -38 2 -76 7 -82 11 -7 4
-12 2 -12 -4 0 -6 -4 -9 -9 -6 -9 6 -175 18 -263 19 -27 1 -48 5 -48 9 0 5 -8
4 -19 -1 -10 -6 -21 -8 -23 -5 -15 14 -700 35 -721 22z"/>
</g>
</svg>
